<mxfile host="65bd71144e">
    <diagram id="MM0vZJjDz7ntY6s6ZM0f" name="Page-1">
        <mxGraphModel dx="1542" dy="568" grid="1" gridSize="10" guides="1" tooltips="1" connect="1" arrows="1" fold="1" page="1" pageScale="1" pageWidth="850" pageHeight="1100" math="0" shadow="0">
            <root>
                <mxCell id="0"/>
                <mxCell id="1" parent="0"/>
                <mxCell id="2" value="Inicio" style="ellipse;whiteSpace=wrap;html=1;fillColor=#60a917;fontColor=#ffffff;strokeColor=#2D7600;" parent="1" vertex="1">
                    <mxGeometry x="280" y="30" width="120" height="80" as="geometry"/>
                </mxCell>
                <mxCell id="3" value="" style="endArrow=classic;html=1;exitX=0.5;exitY=1;exitDx=0;exitDy=0;entryX=0.5;entryY=0;entryDx=0;entryDy=0;" parent="1" source="2" target="5" edge="1">
                    <mxGeometry width="50" height="50" relative="1" as="geometry">
                        <mxPoint x="330" y="220" as="sourcePoint"/>
                        <mxPoint x="340" y="160" as="targetPoint"/>
                        <Array as="points">
                            <mxPoint x="340" y="130"/>
                        </Array>
                    </mxGeometry>
                </mxCell>
                <mxCell id="4" style="edgeStyle=none;html=1;entryX=0.5;entryY=0;entryDx=0;entryDy=0;" parent="1" source="5" target="8" edge="1">
                    <mxGeometry relative="1" as="geometry">
                        <mxPoint x="340" y="228" as="targetPoint"/>
                    </mxGeometry>
                </mxCell>
                <mxCell id="5" value="x,y" style="shape=parallelogram;perimeter=parallelogramPerimeter;whiteSpace=wrap;html=1;fixedSize=1;fillColor=#76608a;fontColor=#ffffff;strokeColor=#432D57;" parent="1" vertex="1">
                    <mxGeometry x="280" y="140" width="120" height="60" as="geometry"/>
                </mxCell>
                <mxCell id="6" style="edgeStyle=none;html=1;" parent="1" source="8" target="64" edge="1">
                    <mxGeometry relative="1" as="geometry">
                        <mxPoint x="520" y="320" as="targetPoint"/>
                        <Array as="points">
                            <mxPoint x="580" y="270"/>
                        </Array>
                    </mxGeometry>
                </mxCell>
                <mxCell id="7" style="edgeStyle=none;html=1;" parent="1" source="8" edge="1">
                    <mxGeometry relative="1" as="geometry">
                        <mxPoint x="170" y="320" as="targetPoint"/>
                        <Array as="points">
                            <mxPoint x="170" y="270"/>
                        </Array>
                    </mxGeometry>
                </mxCell>
                <mxCell id="8" value="x==0" style="rhombus;whiteSpace=wrap;html=1;fillColor=#f0a30a;fontColor=#000000;strokeColor=#BD7000;" parent="1" vertex="1">
                    <mxGeometry x="300" y="230" width="80" height="80" as="geometry"/>
                </mxCell>
                <mxCell id="9" value="rta= &quot;origen&quot;" style="rounded=1;whiteSpace=wrap;html=1;fillColor=#a20025;strokeColor=#6F0000;fontColor=#ffffff;" parent="1" vertex="1">
                    <mxGeometry x="620" y="385" width="120" height="60" as="geometry"/>
                </mxCell>
                <mxCell id="10" style="edgeStyle=none;html=1;" parent="1" source="11" edge="1">
                    <mxGeometry relative="1" as="geometry">
                        <mxPoint x="290" y="400" as="targetPoint"/>
                        <Array as="points">
                            <mxPoint x="290" y="360"/>
                        </Array>
                    </mxGeometry>
                </mxCell>
                <mxCell id="11" value="X&amp;gt;0" style="rhombus;whiteSpace=wrap;html=1;fillColor=#f0a30a;fontColor=#000000;strokeColor=#BD7000;" parent="1" vertex="1">
                    <mxGeometry x="130" y="320" width="80" height="80" as="geometry"/>
                </mxCell>
                <mxCell id="12" value="rta= se encuentra en el eje 1" style="rounded=1;whiteSpace=wrap;html=1;fillColor=#a20025;strokeColor=#6F0000;fontColor=#ffffff;" parent="1" vertex="1">
                    <mxGeometry x="350" y="480" width="120" height="60" as="geometry"/>
                </mxCell>
                <mxCell id="13" style="edgeStyle=none;html=1;" parent="1" edge="1">
                    <mxGeometry relative="1" as="geometry">
                        <mxPoint y="396" as="targetPoint"/>
                        <mxPoint x="130" y="360" as="sourcePoint"/>
                        <Array as="points">
                            <mxPoint y="360"/>
                        </Array>
                    </mxGeometry>
                </mxCell>
                <mxCell id="14" value="" style="endArrow=none;html=1;" parent="1" edge="1">
                    <mxGeometry width="50" height="50" relative="1" as="geometry">
                        <mxPoint x="340" y="680" as="sourcePoint"/>
                        <mxPoint x="-130" y="540" as="targetPoint"/>
                        <Array as="points">
                            <mxPoint x="-130" y="680"/>
                        </Array>
                    </mxGeometry>
                </mxCell>
                <mxCell id="15" value="" style="endArrow=none;html=1;" parent="1" edge="1">
                    <mxGeometry width="50" height="50" relative="1" as="geometry">
                        <mxPoint x="340" y="680" as="sourcePoint"/>
                        <mxPoint x="680" y="445" as="targetPoint"/>
                        <Array as="points">
                            <mxPoint x="680" y="680"/>
                        </Array>
                    </mxGeometry>
                </mxCell>
                <mxCell id="16" value="" style="endArrow=none;html=1;" parent="1" edge="1">
                    <mxGeometry width="50" height="50" relative="1" as="geometry">
                        <mxPoint x="400" y="680" as="sourcePoint"/>
                        <mxPoint x="400" y="540" as="targetPoint"/>
                    </mxGeometry>
                </mxCell>
                <mxCell id="17" value="" style="endArrow=classic;html=1;entryX=0.5;entryY=0;entryDx=0;entryDy=0;" parent="1" target="19" edge="1">
                    <mxGeometry width="50" height="50" relative="1" as="geometry">
                        <mxPoint x="340" y="680" as="sourcePoint"/>
                        <mxPoint x="340" y="550" as="targetPoint"/>
                    </mxGeometry>
                </mxCell>
                <mxCell id="18" value="" style="edgeStyle=none;html=1;" parent="1" source="19" target="20" edge="1">
                    <mxGeometry relative="1" as="geometry"/>
                </mxCell>
                <mxCell id="19" value="rta" style="shape=document;whiteSpace=wrap;html=1;boundedLbl=1;fillColor=#647687;fontColor=#ffffff;strokeColor=#314354;" parent="1" vertex="1">
                    <mxGeometry x="280" y="710" width="120" height="80" as="geometry"/>
                </mxCell>
                <mxCell id="20" value="Fin" style="ellipse;whiteSpace=wrap;html=1;aspect=fixed;fillColor=#60a917;fontColor=#ffffff;strokeColor=#2D7600;" parent="1" vertex="1">
                    <mxGeometry x="300" y="820" width="80" height="80" as="geometry"/>
                </mxCell>
                <mxCell id="21" value="X&amp;lt;0" style="rhombus;whiteSpace=wrap;html=1;fillColor=#f0a30a;fontColor=#000000;strokeColor=#BD7000;" parent="1" vertex="1">
                    <mxGeometry x="-40" y="400" width="80" height="80" as="geometry"/>
                </mxCell>
                <mxCell id="22" style="edgeStyle=none;html=1;exitX=0;exitY=0.5;exitDx=0;exitDy=0;entryX=0.5;entryY=0;entryDx=0;entryDy=0;" parent="1" source="68" target="24" edge="1">
                    <mxGeometry relative="1" as="geometry">
                        <mxPoint x="170" y="490" as="targetPoint"/>
                        <Array as="points">
                            <mxPoint x="200" y="440"/>
                        </Array>
                        <mxPoint x="-30" y="480" as="sourcePoint"/>
                    </mxGeometry>
                </mxCell>
                <mxCell id="23" style="edgeStyle=none;html=1;entryX=0.423;entryY=-0.067;entryDx=0;entryDy=0;entryPerimeter=0;" parent="1" edge="1">
                    <mxGeometry relative="1" as="geometry">
                        <mxPoint x="-129.23999999999978" y="475.98" as="targetPoint"/>
                        <mxPoint x="-40" y="440" as="sourcePoint"/>
                        <Array as="points">
                            <mxPoint x="-130" y="440"/>
                        </Array>
                    </mxGeometry>
                </mxCell>
                <mxCell id="24" value="rta= Se encuentra en el eje 4" style="rounded=1;whiteSpace=wrap;html=1;fillColor=#a20025;strokeColor=#6F0000;fontColor=#ffffff;" parent="1" vertex="1">
                    <mxGeometry x="140" y="470" width="120" height="60" as="geometry"/>
                </mxCell>
                <mxCell id="25" value="rta= &quot;Eje Y&quot;" style="rounded=1;whiteSpace=wrap;html=1;fillColor=#a20025;strokeColor=#6F0000;fontColor=#ffffff;" parent="1" vertex="1">
                    <mxGeometry x="-190" y="480" width="120" height="60" as="geometry"/>
                </mxCell>
                <mxCell id="26" value="" style="endArrow=none;html=1;entryX=0.5;entryY=1;entryDx=0;entryDy=0;" parent="1" edge="1">
                    <mxGeometry width="50" height="50" relative="1" as="geometry">
                        <mxPoint x="200" y="680" as="sourcePoint"/>
                        <mxPoint x="199.5" y="530" as="targetPoint"/>
                        <Array as="points">
                            <mxPoint x="200" y="600"/>
                        </Array>
                    </mxGeometry>
                </mxCell>
                <mxCell id="27" value="&lt;font color=&quot;#ff1212&quot;&gt;NO&lt;/font&gt;" style="text;html=1;align=center;verticalAlign=middle;resizable=0;points=[];autosize=1;strokeColor=none;fillColor=none;" parent="1" vertex="1">
                    <mxGeometry x="230" y="230" width="40" height="30" as="geometry"/>
                </mxCell>
                <mxCell id="28" value="&lt;font color=&quot;#33ff33&quot;&gt;No&lt;/font&gt;" style="text;html=1;align=center;verticalAlign=middle;resizable=0;points=[];autosize=1;strokeColor=none;fillColor=none;" parent="1" vertex="1">
                    <mxGeometry x="70" y="320" width="40" height="30" as="geometry"/>
                </mxCell>
                <mxCell id="29" value="&lt;font color=&quot;#ff1212&quot;&gt;NO&lt;/font&gt;" style="text;html=1;align=center;verticalAlign=middle;resizable=0;points=[];autosize=1;strokeColor=none;fillColor=none;" parent="1" vertex="1">
                    <mxGeometry x="-90" y="400" width="40" height="30" as="geometry"/>
                </mxCell>
                <mxCell id="30" value="&lt;font color=&quot;#33ff33&quot;&gt;SI&lt;/font&gt;" style="text;html=1;align=center;verticalAlign=middle;resizable=0;points=[];autosize=1;strokeColor=none;fillColor=none;" parent="1" vertex="1">
                    <mxGeometry x="410" y="230" width="30" height="30" as="geometry"/>
                </mxCell>
                <mxCell id="31" value="&lt;font color=&quot;#33ff33&quot;&gt;SI&lt;/font&gt;" style="text;html=1;align=center;verticalAlign=middle;resizable=0;points=[];autosize=1;strokeColor=none;fillColor=none;" parent="1" vertex="1">
                    <mxGeometry x="220" y="320" width="30" height="30" as="geometry"/>
                </mxCell>
                <mxCell id="32" value="&lt;font color=&quot;#33ff33&quot;&gt;SI&lt;/font&gt;" style="text;html=1;align=center;verticalAlign=middle;resizable=0;points=[];autosize=1;strokeColor=none;fillColor=none;" parent="1" vertex="1">
                    <mxGeometry x="40" y="400" width="30" height="30" as="geometry"/>
                </mxCell>
                <mxCell id="64" value="y==0" style="rhombus;whiteSpace=wrap;html=1;fillColor=#f0a30a;fontColor=#000000;strokeColor=#BD7000;" parent="1" vertex="1">
                    <mxGeometry x="540" y="300" width="80" height="80" as="geometry"/>
                </mxCell>
                <mxCell id="65" style="edgeStyle=none;html=1;entryX=0.5;entryY=0;entryDx=0;entryDy=0;exitX=1;exitY=0.5;exitDx=0;exitDy=0;" parent="1" source="64" target="9" edge="1">
                    <mxGeometry relative="1" as="geometry">
                        <mxPoint x="620" y="400" as="targetPoint"/>
                        <Array as="points">
                            <mxPoint x="680" y="340"/>
                        </Array>
                        <mxPoint x="560" y="360" as="sourcePoint"/>
                    </mxGeometry>
                </mxCell>
                <mxCell id="66" style="edgeStyle=none;html=1;exitX=0;exitY=0.5;exitDx=0;exitDy=0;entryX=0.5;entryY=0;entryDx=0;entryDy=0;" parent="1" source="64" target="67" edge="1">
                    <mxGeometry relative="1" as="geometry">
                        <mxPoint x="480" y="390" as="targetPoint"/>
                        <Array as="points">
                            <mxPoint x="480" y="340"/>
                        </Array>
                        <mxPoint x="480" y="360" as="sourcePoint"/>
                    </mxGeometry>
                </mxCell>
                <mxCell id="67" value="rta= &quot;Eje Y&quot;" style="rounded=1;whiteSpace=wrap;html=1;fillColor=#a20025;strokeColor=#6F0000;fontColor=#ffffff;" parent="1" vertex="1">
                    <mxGeometry x="420" y="385" width="120" height="60" as="geometry"/>
                </mxCell>
                <mxCell id="69" style="edgeStyle=none;html=1;exitX=1;exitY=0.5;exitDx=0;exitDy=0;" parent="1" source="68" edge="1">
                    <mxGeometry relative="1" as="geometry">
                        <mxPoint x="400" y="480" as="targetPoint"/>
                        <Array as="points">
                            <mxPoint x="400" y="440"/>
                        </Array>
                    </mxGeometry>
                </mxCell>
                <mxCell id="68" value="y&amp;gt;0" style="rhombus;whiteSpace=wrap;html=1;fillColor=#f0a30a;fontColor=#000000;strokeColor=#BD7000;" parent="1" vertex="1">
                    <mxGeometry x="250" y="400" width="80" height="80" as="geometry"/>
                </mxCell>
                <mxCell id="70" style="edgeStyle=none;html=1;entryX=0.5;entryY=0;entryDx=0;entryDy=0;" parent="1" target="72" edge="1">
                    <mxGeometry relative="1" as="geometry">
                        <mxPoint x="80" y="480" as="targetPoint"/>
                        <Array as="points">
                            <mxPoint x="80" y="440"/>
                        </Array>
                        <mxPoint x="40" y="440" as="sourcePoint"/>
                    </mxGeometry>
                </mxCell>
                <mxCell id="72" value="y&amp;lt;0" style="rhombus;whiteSpace=wrap;html=1;fillColor=#f0a30a;fontColor=#000000;strokeColor=#BD7000;" parent="1" vertex="1">
                    <mxGeometry x="40" y="510" width="80" height="80" as="geometry"/>
                </mxCell>
                <mxCell id="73" style="edgeStyle=none;html=1;" parent="1" edge="1">
                    <mxGeometry relative="1" as="geometry">
                        <mxPoint x="200" y="590" as="targetPoint"/>
                        <Array as="points">
                            <mxPoint x="200" y="550"/>
                        </Array>
                        <mxPoint x="120" y="550" as="sourcePoint"/>
                    </mxGeometry>
                </mxCell>
                <mxCell id="74" value="rta= Se encuentra en el eje 3" style="rounded=1;whiteSpace=wrap;html=1;fillColor=#a20025;strokeColor=#6F0000;fontColor=#ffffff;" parent="1" vertex="1">
                    <mxGeometry x="140" y="590" width="120" height="60" as="geometry"/>
                </mxCell>
                <mxCell id="76" style="edgeStyle=none;html=1;exitX=0;exitY=0.5;exitDx=0;exitDy=0;" parent="1" edge="1">
                    <mxGeometry relative="1" as="geometry">
                        <mxPoint x="-10" y="600" as="targetPoint"/>
                        <Array as="points">
                            <mxPoint x="-10" y="550"/>
                        </Array>
                        <mxPoint x="40" y="550" as="sourcePoint"/>
                    </mxGeometry>
                </mxCell>
                <mxCell id="77" value="rta= Se encuentra en el eje 2" style="rounded=1;whiteSpace=wrap;html=1;fillColor=#a20025;strokeColor=#6F0000;fontColor=#ffffff;" parent="1" vertex="1">
                    <mxGeometry x="-70" y="600" width="120" height="60" as="geometry"/>
                </mxCell>
                <mxCell id="78" value="" style="endArrow=none;html=1;" parent="1" edge="1">
                    <mxGeometry width="50" height="50" relative="1" as="geometry">
                        <mxPoint x="480" y="680" as="sourcePoint"/>
                        <mxPoint x="479.5" y="445" as="targetPoint"/>
                    </mxGeometry>
                </mxCell>
                <mxCell id="79" value="" style="endArrow=none;html=1;entryX=0.5;entryY=1;entryDx=0;entryDy=0;" parent="1" edge="1">
                    <mxGeometry width="50" height="50" relative="1" as="geometry">
                        <mxPoint x="-1" y="680" as="sourcePoint"/>
                        <mxPoint x="-1" y="660" as="targetPoint"/>
                        <Array as="points"/>
                    </mxGeometry>
                </mxCell>
                <mxCell id="80" value="&lt;font color=&quot;#ff1212&quot;&gt;NO&lt;/font&gt;" style="text;html=1;strokeColor=none;fillColor=none;align=center;verticalAlign=middle;whiteSpace=wrap;rounded=0;" parent="1" vertex="1">
                    <mxGeometry x="-10" y="520" width="60" height="30" as="geometry"/>
                </mxCell>
                <mxCell id="81" value="&lt;font color=&quot;#33ff33&quot;&gt;SI&lt;/font&gt;" style="text;html=1;strokeColor=none;fillColor=none;align=center;verticalAlign=middle;whiteSpace=wrap;rounded=0;" parent="1" vertex="1">
                    <mxGeometry x="110" y="520" width="60" height="30" as="geometry"/>
                </mxCell>
                <mxCell id="82" value="&lt;font color=&quot;#ff1212&quot;&gt;NO&lt;/font&gt;" style="text;html=1;strokeColor=none;fillColor=none;align=center;verticalAlign=middle;whiteSpace=wrap;rounded=0;" parent="1" vertex="1">
                    <mxGeometry x="200" y="410" width="60" height="30" as="geometry"/>
                </mxCell>
                <mxCell id="83" value="&lt;font color=&quot;#33ff33&quot;&gt;SI&lt;/font&gt;" style="text;html=1;strokeColor=none;fillColor=none;align=center;verticalAlign=middle;whiteSpace=wrap;rounded=0;" parent="1" vertex="1">
                    <mxGeometry x="330" y="410" width="60" height="30" as="geometry"/>
                </mxCell>
                <mxCell id="84" value="&lt;font color=&quot;#ff1212&quot;&gt;NO&lt;/font&gt;" style="text;html=1;strokeColor=none;fillColor=none;align=center;verticalAlign=middle;whiteSpace=wrap;rounded=0;" parent="1" vertex="1">
                    <mxGeometry x="480" y="310" width="60" height="30" as="geometry"/>
                </mxCell>
                <mxCell id="85" value="&lt;font color=&quot;#33ff33&quot;&gt;SI&lt;/font&gt;" style="text;html=1;strokeColor=none;fillColor=none;align=center;verticalAlign=middle;whiteSpace=wrap;rounded=0;" parent="1" vertex="1">
                    <mxGeometry x="620" y="310" width="60" height="30" as="geometry"/>
                </mxCell>
            </root>
        </mxGraphModel>
    </diagram>
</mxfile>